HIERARCHY
ROOT hip
{
	OFFSET 0.000000 0.000000 0.000000
	CHANNELS 6 Xposition Yposition Zposition Xrotation Zrotation Yrotation 
	JOINT abdomen
	{
		OFFSET 0.000000 3.422050 0.000000
		CHANNELS 3 Xrotation Zrotation Yrotation 
		JOINT chest
		{
			OFFSET 0.000000 8.486693 -0.684411
			CHANNELS 3 Xrotation Zrotation Yrotation 
			JOINT neck
			{
				OFFSET 0.000000 10.266162 -0.273764
				CHANNELS 3 Xrotation Zrotation Yrotation 
				JOINT head
				{
					OFFSET 0.000000 3.148285 0.000000
					CHANNELS 3 Xrotation Zrotation Yrotation 
					End Site
					{
						OFFSET 0.000000 3.148289 0.000000
					}
				}
			}
			JOINT lCollar
			{
				OFFSET 3.422053 6.707223 -0.821293
				CHANNELS 3 Yrotation Zrotation Xrotation 
				JOINT lShldr
				{
					OFFSET 3.285171 0.000000 0.000000
					CHANNELS 3 Zrotation Yrotation Xrotation 
					JOINT lForeArm
					{
						OFFSET 10.129278 0.000000 0.000000
						CHANNELS 3 Yrotation Zrotation Xrotation 
						JOINT lHand
						{
							OFFSET 8.486692 0.000000 0.000000
							CHANNELS 3 Zrotation Yrotation Xrotation 
							End Site
							{
								OFFSET 4.106464 0.000000 0.000000
							}
						}
					}
				}
			}
			JOINT rCollar
			{
				OFFSET -3.558935 6.707223 -0.821293
				CHANNELS 3 Yrotation Zrotation Xrotation 
				JOINT rShldr
				{
					OFFSET -3.148289 0.000000 0.000000
					CHANNELS 3 Zrotation Yrotation Xrotation 
					JOINT rForeArm
					{
						OFFSET -10.266159 0.000000 0.000000
						CHANNELS 3 Yrotation Zrotation Xrotation 
						JOINT rHand
						{
							OFFSET -8.349810 0.000000 0.000000
							CHANNELS 3 Zrotation Yrotation Xrotation 
							End Site
							{
								OFFSET -4.106464 0.000000 0.000000
							}
						}
					}
				}
			}
		}
	}
	JOINT lThigh
	{
		OFFSET 5.338403 -1.642589 1.368821
		CHANNELS 3 Xrotation Zrotation Yrotation 
		JOINT lShin
		{
			OFFSET -2.053232 -20.121670 0.000000
			CHANNELS 3 Xrotation Zrotation Yrotation 
			JOINT lFoot
			{
				OFFSET 0.000000 -19.300380 -1.231939
				CHANNELS 3 Xrotation Yrotation Zrotation 
				End Site
				{
					OFFSET 0.000000 -2.463878 4.653993
				}
			}
		}
	}
	JOINT rThigh
	{
		OFFSET -5.338403 -1.642589 1.368821
		CHANNELS 3 Xrotation Zrotation Yrotation 
		JOINT rShin
		{
			OFFSET 2.053232 -20.121670 0.000000
			CHANNELS 3 Xrotation Zrotation Yrotation 
			JOINT rFoot
			{
				OFFSET 0.000000 -19.300380 -1.231939
				CHANNELS 3 Xrotation Yrotation Zrotation 
				End Site
				{
					OFFSET 0.000000 -2.463878 4.653993
				}
			}
		}
	}
}
MOTION
Frames: 15
Frame Time: 0.033264
0.000000 43.528500 0.000000 0.000000 0.000000 0.000000 0.000000 0.000000 0.000000 0.000000 0.000000 0.000000 0.000000 0.000000 0.000000 0.000000 0.000000 0.000000 0.000000 0.000000 0.000000 0.000000 0.000000 0.000000 0.000000 0.000000 0.000000 0.000000 0.000000 0.000000 0.000000 0.000000 0.000000 0.000000 0.000000 0.000000 0.000000 0.000000 0.000000 0.000000 0.000000 0.000000 0.000000 0.000000 0.000000 0.000000 0.000000 0.000000 0.000000 0.000000 0.000000 0.000000 0.000000 0.000000 0.000000 0.000000 0.000000 0.000000 0.000000 0.000000 
0.000000 4.831345 0.000000 -90.001877 0.000000 0.000000 23.455957 -0.029330 -0.022161 19.095795 -0.290598 -0.791826 17.998348 0.000000 0.000000 8.998567 0.000000 0.000000 3.007240 -19.724140 -0.252934 -73.663857 -22.687094 -5.412711 -33.916031 -25.811808 38.646034 -36.216633 19.983484 18.752485 -8.610972 -0.665439 0.337423 76.742165 -30.292879 0.734295 74.998512 -0.001709 34.000713 6.998461 -0.202121 23.599018 -0.919320 28.388403 0.479930 10.208740 -1.981909 -0.080483 13.611595 2.328721 5.489282 -37.846592 -32.447720 -0.186878 85.380165 -9.046591 -0.222689 18.679640 -1.731586 -5.014312 
0.000000 4.831345 0.000000 -90.001877 0.000000 0.000000 23.455957 -0.029330 -0.022161 19.595074 -0.291385 -0.791767 17.451563 0.000000 0.000000 8.912864 0.000000 0.000000 3.309996 -19.178459 -0.702977 -74.115097 -22.491386 -5.190411 -34.653988 -26.462952 38.334290 -36.446953 20.686409 18.313747 -8.610972 -0.665439 0.337423 76.742165 -30.292879 0.734295 74.998512 -0.001709 34.000713 6.841275 -0.095560 23.487894 -0.919320 28.388403 0.479930 10.208740 -1.981909 -0.080483 13.611596 2.328721 5.489283 -37.846592 -32.447720 -0.186878 85.380165 -9.046591 -0.222689 18.679640 -1.731586 -5.014313 
0.000000 4.831345 0.000000 -90.001877 0.000000 0.000000 23.455959 -0.029330 -0.022161 20.094503 -0.292173 -0.791716 16.903669 0.000000 0.000000 8.827151 0.000000 0.000000 3.616538 -18.634586 -1.154973 -74.564995 -22.294024 -4.970046 -35.400921 -27.111092 38.011005 -36.684341 21.388231 17.869547 -8.610972 -0.665439 0.337423 76.742165 -30.292879 0.734295 74.998512 -0.001710 34.000717 6.683873 0.010702 23.376471 -0.919320 28.388403 0.479930 10.208740 -1.981909 -0.080483 13.611595 2.328721 5.489282 -37.846600 -32.447723 -0.186878 85.380165 -9.046591 -0.222688 18.679640 -1.731586 -5.014312 
0.000000 4.831345 0.000000 -90.001877 0.000000 0.000000 23.455957 -0.029330 -0.022161 20.594070 -0.292961 -0.791671 16.354691 0.000000 0.000000 8.741427 0.000000 0.000000 3.926852 -18.092632 -1.608937 -75.013550 -22.095022 -4.751616 -36.157078 -27.755993 37.675995 -36.928917 22.088799 17.419710 -8.610972 -0.665439 0.337423 76.742165 -30.292879 0.734294 74.998520 -0.001707 34.000717 6.526256 0.116663 23.264753 -0.919320 28.388405 0.479930 10.208740 -1.981909 -0.080483 13.611597 2.328722 5.489283 -37.846592 -32.447720 -0.186878 85.380165 -9.046591 -0.222689 18.679640 -1.731586 -5.014313 
0.000000 4.831345 0.000000 -90.001877 0.000000 0.000000 23.455957 -0.029330 -0.022161 21.093744 -0.293750 -0.791633 15.804645 0.000000 0.000000 8.655694 0.000000 0.000000 4.240917 -17.552694 -2.064884 -75.460732 -21.894403 -4.535138 -36.922646 -28.397392 37.329044 -37.180859 22.787983 16.964079 -8.610971 -0.665439 0.337423 76.742165 -30.292879 0.734295 74.998512 -0.001709 34.000713 6.368425 0.222320 23.152733 -0.919320 28.388403 0.479930 10.208740 -1.981909 -0.080483 13.611595 2.328721 5.489282 -37.846592 -32.447720 -0.186877 85.380165 -9.046591 -0.222689 18.679640 -1.731586 -5.014312 
0.000000 4.831345 0.000000 -90.001877 0.000000 0.000000 23.455957 -0.029330 -0.022161 21.593523 -0.294540 -0.791603 15.253558 0.000000 0.000000 8.569952 0.000000 0.000000 4.558715 -17.014875 -2.522828 -75.906525 -21.692194 -4.320623 -37.697857 -29.035038 36.969948 -37.440304 23.485638 16.502487 -8.610972 -0.665439 0.337423 76.742165 -30.292877 0.734294 74.998512 -0.001710 34.000713 6.210380 0.327673 23.040415 -0.919320 28.388403 0.479930 10.208740 -1.981909 -0.080483 13.611595 2.328721 5.489282 -37.846592 -32.447720 -0.186878 85.380165 -9.046591 -0.222689 18.679640 -1.731586 -5.014312 
0.000000 4.831345 0.000000 -90.001877 0.000000 0.000000 23.455957 -0.029330 -0.022161 22.093369 -0.295330 -0.791578 14.701445 0.000000 0.000000 8.484199 0.000000 0.000000 4.880226 -16.479280 -2.982779 -76.350960 -21.488422 -4.108077 -38.482929 -29.668682 36.598518 -37.707390 24.181616 16.034748 -8.610972 -0.665439 0.337423 76.742165 -30.292879 0.734295 74.998512 -0.001709 34.000713 6.052124 0.432717 22.927816 -0.919320 28.388403 0.479930 10.208740 -1.981909 -0.080483 13.611595 2.328721 5.489282 -37.846592 -32.447720 -0.186878 85.380165 -9.046591 -0.222689 18.679640 -1.731586 -5.014312 
0.000000 4.831345 0.000000 -90.001877 0.000000 0.000000 23.455957 -0.029330 -0.022161 22.593273 -0.296120 -0.791561 14.148335 0.000000 0.000000 8.398438 0.000000 0.000000 5.205430 -15.946011 -3.444747 -76.793983 -21.283102 -3.897511 -39.278053 -30.298040 36.214527 -37.982323 24.875786 15.560706 -8.610972 -0.665439 0.337423 76.742165 -30.292879 0.734295 74.998512 -0.001710 34.000717 5.893655 0.537453 22.814913 -0.919320 28.388405 0.479930 10.208740 -1.981909 -0.080483 13.611596 2.328721 5.489283 -37.846592 -32.447720 -0.186878 85.380165 -9.046591 -0.222688 18.679640 -1.731586 -5.014312 
0.000000 4.831345 0.000000 -90.001877 0.000000 0.000000 23.455959 -0.029330 -0.022161 23.093216 -0.296910 -0.791551 13.594252 0.000000 0.000000 8.312667 0.000000 0.000000 5.534307 -15.415174 -3.908744 -77.235626 -21.076265 -3.688929 -40.083473 -30.922873 35.817818 -38.265232 25.567984 15.080161 -8.610972 -0.665439 0.337423 76.742165 -30.292879 0.734295 74.998512 -0.001709 34.000717 5.734973 0.641877 22.701719 -0.919320 28.388403 0.479930 10.208740 -1.981909 -0.080483 13.611596 2.328721 5.489282 -37.846592 -32.447720 -0.186878 85.380165 -9.046591 -0.222689 18.679640 -1.731586 -5.014312 
0.000000 4.831345 0.000000 -90.001877 0.000000 0.000000 23.455961 -0.029330 -0.022161 23.593180 -0.297701 -0.791548 13.039219 0.000000 0.000000 8.226888 0.000000 0.000000 5.866834 -14.886864 -4.374774 -77.675850 -20.867928 -3.482345 -40.899376 -31.542891 35.408154 -38.556301 26.258074 14.592943 -8.610973 -0.665439 0.337423 76.742165 -30.292879 0.734296 74.998512 -0.001709 34.000713 5.576082 0.745988 22.588232 -0.919320 28.388405 0.479930 10.208741 -1.981909 -0.080483 13.611597 2.328722 5.489283 -37.846592 -32.447720 -0.186878 85.380165 -9.046591 -0.222689 18.679640 -1.731586 -5.014312 
0.000000 4.831345 0.000000 -90.001862 0.000000 0.000000 23.455956 -0.029330 -0.022161 24.093145 -0.298491 -0.791551 12.483260 0.000000 0.000000 8.141097 0.000000 0.000000 6.202989 -14.361194 -4.842845 -78.114677 -20.658119 -3.277762 -41.725967 -32.157818 34.985355 -38.855694 26.945885 14.098850 -8.610972 -0.665439 0.337423 76.742149 -30.292877 0.734296 74.998512 -0.001709 34.000713 5.416980 0.849784 22.474451 -0.919319 28.388399 0.479929 10.208739 -1.981909 -0.080483 13.611595 2.328721 5.489281 -37.846592 -32.447720 -0.186878 85.380157 -9.046590 -0.222688 18.679640 -1.731586 -5.014312 
0.000000 4.831345 0.000000 -90.001877 0.000000 0.000000 23.455957 -0.029330 -0.022161 24.593092 -0.299282 -0.791562 11.926396 0.000000 0.000000 8.055301 0.000000 0.000000 6.542746 -13.838252 -5.312959 -78.552048 -20.446854 -3.075189 -42.563450 -32.767384 34.549213 -39.163601 27.631283 13.597702 -8.610972 -0.665439 0.337423 76.742165 -30.292877 0.734294 74.998512 -0.001709 34.000713 5.257669 0.953262 22.360384 -0.919320 28.388403 0.479930 10.208740 -1.981909 -0.080483 13.611595 2.328721 5.489282 -37.846592 -32.447720 -0.186878 85.380165 -9.046591 -0.222689 18.679640 -1.731586 -5.014312 
0.000000 4.831345 0.000000 -90.001877 0.000000 0.000000 23.455957 -0.029330 -0.022161 25.092999 -0.300072 -0.791579 11.368652 0.000000 0.000000 7.969493 0.000000 0.000000 6.886083 -13.318150 -5.785119 -78.988014 -20.234167 -2.874634 -43.412052 -33.371311 34.099564 -39.480190 28.314100 13.089286 -8.610972 -0.665439 0.337423 76.742165 -30.292879 0.734295 74.998512 -0.001706 34.000713 5.098150 1.056421 22.246025 -0.919320 28.388403 0.479930 10.208740 -1.981909 -0.080483 13.611595 2.328721 5.489282 -37.846592 -32.447720 -0.186878 85.380165 -9.046591 -0.222689 18.679640 -1.731586 -5.014312 
0.000000 4.831345 0.000000 -90.001877 0.000000 0.000000 23.455957 -0.029330 -0.022161 25.592844 -0.300862 -0.791603 10.810054 0.000000 0.000000 7.883677 0.000000 0.000000 7.232974 -12.800984 -6.259328 -79.422546 -20.020081 -2.676094 -44.271946 -33.969318 33.636211 -39.805672 28.994184 12.573414 -8.610972 -0.665439 0.337423 76.742165 -30.292879 0.734295 74.998512 -0.001709 34.000713 4.938425 1.159259 22.131382 -0.919320 28.388403 0.479930 10.208740 -1.981909 -0.080483 13.611595 2.328721 5.489282 -37.846592 -32.447720 -0.186878 85.380165 -9.046591 -0.222689 18.679640 -1.731586 -5.014312 
